<?xml version="1.0" encoding="UTF-8"?>
<svg id="Layer_1" data-name="Layer 1" xmlns="http://www.w3.org/2000/svg" viewBox="0 0 504 127.15">
  <defs>
    <style>
      .cls-1 {
        fill: #004aad;
      }

      .cls-2 {
        fill: #300c0c;
      }

      .cls-3 {
        fill-rule: evenodd;
      }
    </style>
  </defs>
  <g>
    <path d="M28.4,84.48c.44-.08.91-.12,1.37-.13-1.06,0-2.1.13-3.09.37.57-.05,1.14-.13,1.72-.23ZM81.22,39.82c-.72.52-1.35,1.17-1.9,1.91-.24.33-.49.62-.75.9-.77.81-1.6,1.4-2.51,1.8-1.64.73-3.5.83-5.55.47-1.13-.19-2.2-.49-3.23-.91-1.37-.55-2.66-1.28-3.89-2.19.48.11.95.19,1.42.25,2.81.32,5.44-.37,7.98-1.56.37-.18.74-.36,1.11-.55.46-.24.92-.49,1.39-.72,1.2-.59,2.43-1.1,3.77-1.3.32-.05.66-.08.99-.09,1.47-.03,2.9.09,4.24.81-1.19.13-2.21.56-3.08,1.18ZM18.78,78.7c1.86-.95,5.53-.11,10.37,2.37-4.52,1.89-8.09,1.08-10.37-2.37ZM25.27,46.51c-.28-.08-.61-.25-.93-.25h-.08c-.68,0-1.31-.09-1.91-.27-1.04-.31-1.97-.89-2.79-1.76-1.33-1.4-2.71-2.75-4.88-2.7,3.24-1.83,6.03-.69,8.83.62.68.31,1.36.64,2.05.93-.1,1.18-.2,2.35-.29,3.43ZM95.42,38.73c-1.02-.64-2.22-1.36-3.4-2.14-.83-.54-1.62-1.16-2.45-1.7-1.87-1.23-3.81-1.99-5.82-2.26-1.91-.27-3.87-.08-5.87.56-1.16.37-2.26.95-3.34,1.56-.66.37-1.31.75-1.97,1.11-.29.16-.59.3-.89.43-.84.36-1.71.59-2.63.7-.27.04-.55.07-.82.08.06-.2.13-.4.2-.58.11-.32.21-.62.26-.92.08-.48.3-.68.69-.79.06-.02.13-.03.21-.05,1.12-.23,2.2-.54,3.23-.94,2.29-.89,4.34-2.23,6.06-4.12.22-.24.43-.48.63-.73,1.2-1.45,2.12-2.97,2.7-4.59.94-2.57,1.02-5.35.02-8.36-1.44-4.35-4.47-7.37-8.4-9.57-.39-.21-.8-.36-1.35-.6,0,.37-.02.47,0,.56.06.19.18.36.24.55.68,1.89,1.55,3.75,2,5.69.55,2.39.32,4.72-.53,6.77-.69,1.65-1.78,3.11-3.22,4.29-.93.76-2,1.41-3.19,1.89-1.34.55-2.41.72-3.32-.59-.11-.16-.3-.26-.46-.38-4.42-3.12-9.15-3.4-14.1-1.53-.67.26-1.24.35-1.98.2-3.08-.65-6.08-.52-8.81,1.28-1.79,1.18-3.08,2.79-4.2,4.6-.02.04-.05.07-.08.11-.22.25-.61.49-.87.45-.18-.02-.35-.05-.53-.08-.87-.15-1.73-.36-2.57-.61-3.79-1.14-5.99-3.85-6.42-7.76-.28-2.53.28-4.88,1.33-7.15.42-.91.88-1.81,1.37-2.79-2.84.81-7.9,5.25-8.69,10.5-.48,3.26-.15,5.94.85,8.13.81,1.76,2.06,3.21,3.68,4.38.85.62,1.8,1.17,2.84,1.65,1.17.54,2.47.99,3.86,1.37-.95,1.16-1.55,1.61-2.43,1.52-.39-.04-.83-.18-1.37-.41-.98-.41-1.91-.92-2.88-1.38-.82-.39-1.64-.69-2.45-.92-.05-.01-.09-.02-.14-.04-3.85-1.04-7.51-.22-10.96,2.42-1.49,1.14-2.95,2.32-4.41,3.47,1.78,1.68,3.57,3.45,5.43,5.15.47.44.95.87,1.44,1.29,1.8,1.56,3.94,2.54,6.31,2.79.22.02.45.04.67.05,1.7.07,3.41-.08,5.13-.14h0s0,0,0,0c-.45,2.61-1.41,5.05-2.77,7.2,4.14-2.92,6.89-7.68,7.05-13.09-.01-.26-.01-.51,0-.75.12-1.74.99-3.16,2.32-4.54.14-.14.28-.29.41-.43,1.91-2.02,3.65-4.2,5.48-6.3,1.11-1.27,2.14-2.63,3.37-3.78.48-.45,1.01-.85,1.55-1.24.69-.49,1.42-.96,2.11-1.46.06.06.12.12.18.19-.27.4-.5.8-.7,1.2-1.22,2.45-1.23,5.05-.39,7.84.12-.21.18-.27.22-.36,1.23-3.44,4.17-5.95,7.56-7.01,2.7-.84,5.69-.76,8.31.52.37.18.71.38,1.03.6.52.37.96.79,1.29,1.28.23.35.41.73.52,1.15.13.48.18,1.02.12,1.6-.13,1.29-.55,2.6-1.08,3.79-.25.57-.61,1.05-1.06,1.43-.6.5-1.35.82-2.2.91-1.48.16-2.98.14-4.47.2-1.82.08-3.53.55-5.08,1.52-2.56,1.6-3.91,4.02-4.54,6.87-.91,4.09-3.44,6.86-6.97,8.88-1.12.64-2.28,1.23-3.34,1.98-1.88,1.33-1.96,3.45-.26,5,.54.49,1.15.9,1.72,1.35,1.41,1.1,2.57,2.4,3.22,4.1,1.12,2.93.43,6.27-1.64,7.96-2.46,2-7.63,1.83-9.96-.34-1.02-.94-1.06-2.07-.03-3.02.55-.51,1.2-.94,1.79-1.42,1.18-.95,1.89-2.11,1.71-3.7-.33-2.95-2.97-4.91-5.89-4.31-.64.13-1.28.32-1.89.56-2.16.88-4.22.96-6.26-.39-.29-.19-.59-.29-.88-.31-.46-.03-.88.15-1.19.5-.06.07-.11.15-.16.22-.11.17-.19.37-.24.59-.17.71-.13,1.53.06,2.23.09.34.15.68.19,1,0,.28.02.55.03.82h0c-.02.5-.09,1-.19,1.51-.2,1-.36,2.04-.29,3.05.11,1.42.7,2.52,1.8,3.25.32.22.69.39,1.1.54.35.12.67.5.85.83.94,1.72,2.09,3.24,3.84,4.21.85.47,1.72.78,2.61.96,3.44-1.8,7.35-2.82,11.5-2.83.56-.19.9-.31,1.24-.41,3.24-.91,6.52-1.1,9.86-.86,2.65.18,5.32.44,7.96.26,6.22-.42,10.94-3.4,13.89-8.95,2.49-4.69,2.67-9.67,1.61-14.73-.41-1.99-1.13-3.92-1.66-5.69,7.66,9.2,6.61,29.95-3.3,41.14.03.02.06.06.08.05.12-.04.25-.09.36-.15,3.3-1.72,6.03-4.13,8.21-7.11,3.85-5.26,5.78-10.83,5.79-16.73,0-.1,0-.21,0-.32,0-.41-.02-.84-.04-1.26,0-.12-.01-.23-.02-.34,0-.02,0-.05,0-.07-.01-.15-.02-.31-.03-.46-.47-6.11-2.63-11.74-5.99-16.44.11.03.22.06.33.09,2.39.63,4.69.88,6.87.68,1.24-.11,2.45-.36,3.61-.77,1.43-.51,2.8-1.24,4.1-2.23.91-.69,1.79-1.51,2.63-2.46.59-.67,1.19-1.35,1.77-2.02,1.26-1.44,2.49-2.87,3.68-4.23h0s0,0,0,0h0Z"/>
    <path class="cls-3" d="M103.57,66.66c0,10.9-3.27,21.06-8.89,29.59-9.94,15.09-27.26,25.07-46.96,25.07-18.26,0-34.47-8.58-44.67-21.86,11.67,10.15,27.02,16.33,43.85,16.39.13,0,.27,0,.41,0,.13,0,.27,0,.41,0,.4,0,.8,0,1.2-.02.13,0,.26-.01.38-.01.27-.01.55-.02.82-.03.15,0,.29-.02.44-.02.26-.02.51-.03.77-.05.03,0,.05,0,.08,0,.12,0,.23-.02.35-.02.27-.02.55-.05.82-.07.12-.01.25-.02.37-.03.39-.04.78-.08,1.17-.13.02,0,.04,0,.07,0,.36-.05.73-.1,1.09-.15.12-.02.25-.04.37-.06.26-.04.53-.08.79-.13.14-.02.28-.05.42-.08.25-.04.49-.09.74-.14.14-.03.29-.05.43-.09.26-.05.53-.11.79-.16.12-.03.23-.05.34-.08.37-.08.74-.17,1.11-.27.05-.01.11-.03.16-.04.32-.08.64-.17.95-.26.12-.03.25-.07.37-.11.25-.07.49-.14.74-.22.13-.04.27-.08.41-.12.24-.07.47-.15.71-.22.13-.04.25-.08.38-.13.26-.09.53-.18.79-.27.1-.04.2-.07.3-.11.36-.13.71-.26,1.06-.4.06-.03.13-.05.19-.08.29-.11.57-.22.86-.34.12-.05.25-.1.37-.15.23-.1.46-.2.68-.29.13-.05.26-.11.39-.17.22-.1.44-.2.66-.3.13-.06.25-.12.37-.17.25-.12.5-.24.74-.36.09-.04.18-.08.27-.13.33-.17.66-.34.99-.51.07-.04.14-.08.21-.11.26-.14.52-.28.77-.43.11-.06.23-.13.34-.19.21-.12.42-.24.64-.37.12-.07.24-.14.36-.21.21-.13.42-.25.62-.38.11-.07.22-.14.33-.21.24-.15.47-.3.7-.45.08-.05.16-.1.24-.15.31-.2.61-.41.92-.62.07-.05.14-.1.21-.15.23-.16.46-.33.69-.5.11-.07.21-.15.31-.23.2-.15.4-.29.59-.44.11-.08.22-.17.32-.25.2-.15.39-.3.58-.46.1-.08.2-.16.3-.25.22-.18.44-.36.66-.54.06-.05.13-.11.19-.16.28-.24.55-.48.83-.72.07-.07.15-.13.22-.2.2-.18.4-.36.6-.55.1-.09.19-.18.28-.26.18-.17.36-.33.53-.51.1-.09.19-.19.29-.29.18-.17.35-.35.52-.52l.26-.27c.21-.21.41-.43.61-.65.05-.05.1-.11.15-.16.25-.27.49-.54.74-.81.07-.08.14-.16.21-.24.17-.2.34-.4.51-.59.09-.11.17-.21.26-.31.15-.18.3-.36.45-.55.09-.11.17-.22.26-.32.15-.19.3-.39.46-.58.07-.1.15-.2.23-.3.18-.24.37-.49.55-.74.04-.05.07-.1.11-.15.22-.3.43-.6.64-.9.06-.09.12-.18.18-.27.15-.22.3-.43.44-.65.07-.11.15-.22.22-.33l.39-.61c.07-.12.14-.23.22-.34.13-.22.26-.43.38-.64.06-.11.13-.22.19-.32.17-.28.33-.57.49-.86.02-.04.04-.07.06-.11.18-.32.35-.65.52-.97.06-.1.11-.21.16-.31.12-.23.23-.46.35-.68.06-.12.12-.25.18-.37.11-.22.21-.43.31-.65.06-.12.12-.25.17-.37.11-.23.21-.46.31-.69.05-.11.1-.22.14-.33.15-.33.29-.67.43-1.01h0c.14-.36.27-.7.4-1.05.04-.11.08-.22.12-.33.09-.24.18-.48.26-.73.05-.13.09-.26.13-.39.07-.23.15-.46.23-.68.04-.14.08-.27.13-.4.08-.24.15-.48.22-.73.04-.12.07-.23.11-.35.01-.03.02-.07.03-.1.2-.72.39-1.44.57-2.17h0c.09-.4.18-.79.26-1.19h0c.08-.41.17-.81.24-1.21h0c.07-.41.14-.81.2-1.21h0c.13-.82.23-1.64.32-2.46h0c.04-.42.08-.82.11-1.24v-.02c.03-.41.06-.83.08-1.24h0c.02-.43.04-.85.05-1.27h0c.01-.42.02-.85.02-1.27,0-6.28-1.2-12.28-3.39-17.8,1.33-1.5,2.64-3.01,3.9-4.46.05-.06.11-.12.16-.18,2.8,6.06,4.49,12.71,4.84,19.71.06.9.09,1.81.09,2.73Z"/>
    <polygon class="cls-3" points="45.84 115.83 45.83 115.83 45.85 115.83 45.84 115.83"/>
    <path class="cls-3" d="M47.73,115.86c-.27,0-.54,0-.82,0,.27,0,.54,0,.82,0Z"/>
    <polygon class="cls-3" points="45.85 115.83 45.85 115.83 45.86 115.83 45.85 115.83"/>
    <path class="cls-3" d="M92.4,66.66c0,.19,0,.39,0,.58-.25,18.95-12.81,35-30.21,40.82-4.53,1.52-9.4,2.34-14.46,2.34-.56,0-1.11-.01-1.66-.03-.38-.01-.76-.03-1.13-.06,9.02-.54,17.31-3.7,24.09-8.72,10.8-7.98,17.79-20.66,17.79-34.93,0-.23,0-.45,0-.68-.06-3.64-.65-7.15-1.68-10.48,1.65-.61,3.23-1.42,4.73-2.43,1.59,4.07,2.48,8.46,2.54,13.06,0,.17,0,.35,0,.52Z"/>
    <path d="M29.77,84.35c-.46,0-.92.06-1.37.13-.58.1-1.15.18-1.72.23.99-.24,2.03-.36,3.09-.37Z"/>
    <path d="M28.4,84.48c.44-.08.91-.12,1.37-.13-1.06,0-2.1.13-3.09.37.57-.05,1.14-.13,1.72-.23ZM29.81,84.35c.16,0,.32,0,.48.01-.16-.01-.32-.02-.48-.01Z"/>
    <path d="M28.4,84.48c.44-.08.91-.12,1.37-.13-1.06,0-2.1.13-3.09.37.57-.05,1.14-.13,1.72-.23ZM29.81,84.35c.16,0,.32,0,.48.01-.16-.01-.32-.02-.48-.01Z"/>
    <path d="M46.08,104.14c.26-1.16.4-2.36.4-3.59,0-8.94-7.25-16.19-16.19-16.19-.16-.01-.32-.02-.48-.01h-.04c-1.06,0-2.1.13-3.09.37-.75.07-1.49.09-2.23.05-.5-.03-.99-.09-1.48-.19,3.44-1.8,7.35-2.82,11.5-2.83h.03c11.41,0,21.02,7.68,23.95,18.16-3.8,2.04-7.96,3.5-12.36,4.25Z"/>
  </g>
  <g>
    <path class="cls-1" d="M132.62,37.29c10.23,0,12.17,4.41,12.17,9.44,0,5.82-5.29,8.73-11.6,8.73h-3.35v6.83h2.69v5.82h-14.2v-5.82h2.47v-19.23h-2.47v-5.78h14.29ZM129.84,50.7h1.98c2.56,0,4.32-1.32,4.32-3.66,0-2.6-1.54-4.01-4.1-4.01h-2.21v7.67Z"/>
    <path class="cls-1" d="M147.04,47.92c1.76-1.06,5.56-3.13,9.61-3.13,5.29,0,11.95,1.98,11.95,9.08v8.6h2.65v5.64h-9.44l-1.06-1.98c-1.63,2.25-4.37,2.82-5.95,2.82-4.19,0-8.69-2.25-8.69-7.37s4.19-8.11,9.17-8.11c2.6,0,4.15,1.28,4.37,1.54v-1.54c0-1.98-1.81-2.47-4.19-2.47-2.6,0-4.89,1.1-6.57,2.03l-1.85-5.12ZM159.65,60.09c-.13-.22-.75-1.28-2.6-1.28s-2.56.97-2.56,2.34c0,1.23,1.01,2.07,2.34,2.07s2.43-.79,2.82-1.45v-1.68Z"/>
    <path class="cls-1" d="M173.59,62.38h1.81v-21.57h-1.81v-5.78h10.19v19.93l5.12-3.04h-3.18v-5.82h12.35v5.82h-3.4l-3,1.9,5.95,8.51h2.2v5.78h-13.05v-5.78h1.85l-3.35-4.76-1.54,1.06v3.7h1.63v5.78h-11.77v-5.73Z"/>
    <path class="cls-1" d="M243.49,45.05c-.35,1.99-.97,4.9-1.28,5.91l-4.63,17.16h-9.22l-4.94-17.6c-.22-.75-.79-3.26-.93-5.47h-.18v17.38h2.51v5.69h-11.95v-5.69h2.38v-19.45h-2.34v-5.69h16.71l4.45,16.49,4.23-16.49h16.8v5.69h-2.43v19.4h2.43v5.73h-13.94v-5.73h2.47v-17.33h-.18Z"/>
    <path class="cls-1" d="M279.49,65.07c-3.26,2.82-6.79,3.84-11.38,3.84-5.47,0-11.64-3.49-11.64-11.95,0-7.23,5.2-11.51,11.86-11.51,5.25,0,9.26,2.69,10.54,6.39.53,1.54,1.01,4.94.09,7.45h-13.89c.26,1.19.84,3.62,4.54,3.62,1.5,0,3.79-.13,6.17-2.12l3.7,4.28ZM271.86,54.93c-.04-1.68-.44-3.53-3.26-3.53s-3.31,2.42-3.4,3.53h6.66Z"/>
    <path class="cls-1" d="M281.74,47.92c1.76-1.06,5.56-3.13,9.61-3.13,5.29,0,11.95,1.98,11.95,9.08v8.6h2.65v5.64h-9.44l-1.06-1.98c-1.63,2.25-4.37,2.82-5.95,2.82-4.19,0-8.69-2.25-8.69-7.37s4.19-8.11,9.17-8.11c2.6,0,4.15,1.28,4.37,1.54v-1.54c0-1.98-1.81-2.47-4.19-2.47-2.6,0-4.89,1.1-6.57,2.03l-1.85-5.12ZM294.35,60.09c-.13-.22-.75-1.28-2.6-1.28s-2.56.97-2.56,2.34c0,1.23,1.01,2.07,2.34,2.07s2.43-.79,2.82-1.45v-1.68Z"/>
    <path class="cls-1" d="M309.65,46.07v-4.06l8.11-2.6v6.66h4.19v5.73h-4.19v7.85c0,1.5-.31,3.53,1.41,3.53.57,0,1.94-.4,2.78-.75v5.64c-1.32.53-4.32.84-5.34.84-6.61,0-6.84-3.62-6.97-9.26v-7.85h-2.38v-5.73h2.38Z"/>
    <path class="cls-1" d="M363.9,48.76h-6.48v-5.64h-3.7v19.14h3.66v5.87h-16.41v-5.87h3.62v-19.14h-3.79v5.64h-6.48v-11.47h29.59v11.47Z"/>
    <path class="cls-1" d="M365.67,68.12v-5.78h1.94v-10.54h-1.9v-5.73h8.29l1.32,2.82c1.15-2.12,2.29-3.93,6.84-3.93v7.94c-3.97,0-6.22,1.02-6.22,4.9v4.54h2.2v5.78h-12.48Z"/>
    <path class="cls-1" d="M384.41,47.92c1.76-1.06,5.56-3.13,9.61-3.13,5.29,0,11.95,1.98,11.95,9.08v8.6h2.65v5.64h-9.44l-1.06-1.98c-1.63,2.25-4.37,2.82-5.95,2.82-4.19,0-8.69-2.25-8.69-7.37s4.19-8.11,9.17-8.11c2.6,0,4.15,1.28,4.37,1.54v-1.54c0-1.98-1.81-2.47-4.19-2.47-2.6,0-4.9,1.1-6.57,2.03l-1.85-5.12ZM397.03,60.09c-.13-.22-.75-1.28-2.6-1.28s-2.56.97-2.56,2.34c0,1.23,1.01,2.07,2.34,2.07s2.43-.79,2.82-1.45v-1.68Z"/>
    <path class="cls-1" d="M423.49,40.77v-5.73h10.98v27.34h2.12v5.73h-10.32l-.75-1.63c-.57.53-2.51,2.03-5.56,2.03-6.22,0-10.23-5.51-10.23-11.64,0-6.88,4.81-11.25,10.23-11.25,3.13,0,4.72,1.15,5.56,1.68v-6.53h-2.03ZM422.39,62.29c1.72,0,3.31-2.16,3.13-5.64,0-3-1.5-5.29-3.18-5.29-1.85,0-3.13,2.16-3.13,5.51,0,2.65,1.23,5.42,3.18,5.42Z"/>
    <path class="cls-1" d="M460.49,65.07c-3.26,2.82-6.79,3.84-11.38,3.84-5.47,0-11.64-3.49-11.64-11.95,0-7.23,5.2-11.51,11.86-11.51,5.25,0,9.26,2.69,10.54,6.39.53,1.54,1.01,4.94.09,7.45h-13.89c.26,1.19.84,3.62,4.54,3.62,1.5,0,3.79-.13,6.17-2.12l3.7,4.28ZM452.86,54.93c-.04-1.68-.44-3.53-3.26-3.53s-3.31,2.42-3.39,3.53h6.66Z"/>
    <path class="cls-1" d="M462.26,68.12v-5.78h1.94v-10.54h-1.9v-5.73h8.29l1.32,2.82c1.15-2.12,2.29-3.93,6.84-3.93v7.94c-3.97,0-6.22,1.02-6.22,4.9v4.54h2.2v5.78h-12.48Z"/>
    <path class="cls-1" d="M480.08,60.18h5.91c0,2.34,3.35,2.95,4.67,2.95.88,0,1.94-.26,1.94-1.5,0-1.32-3.31-1.54-6.48-2.65-3-1.06-5.86-2.91-5.86-7.06,0-4.5,4.63-6.39,7.76-6.39s5.64,1.54,6.57,3.44l.35-2.91h5.42v7.94h-5.73c0-1.85-2.29-3.35-4.5-3.35-.93,0-1.72.49-1.72,1.59,0,1.23,2.6,1.76,5.42,2.73,3.35,1.15,7.1,2.43,7.1,7.06,0,4.15-3.93,6.61-8.2,6.61-3.18,0-5.69-1.54-6.75-3.22l-.4,2.69h-5.51v-7.94Z"/>
    <path class="cls-2" d="M168.2,102.57h-1.85v-14.7h8.21v1.63h-6.36v5.21h5.97v1.62h-5.97v6.24Z"/>
    <path class="cls-2" d="M186.17,96.5v6.07h-1.85v-14.7h4.05c1.82,0,3.17.35,4.05,1.04.87.69,1.31,1.74,1.31,3.13,0,1.95-.98,3.26-2.95,3.94l4.03,6.58h-2.16l-3.56-6.07h-2.93ZM186.17,94.93h2.2c1.19,0,2.06-.23,2.61-.7s.82-1.17.82-2.09-.28-1.6-.83-2.02-1.46-.64-2.7-.64h-2.1v5.46Z"/>
    <path class="cls-2" d="M210.73,102.57h-8.21v-14.7h8.21v1.63h-6.36v4.58h5.99v1.61h-5.99v5.25h6.36v1.63Z"/>
    <path class="cls-2" d="M228.8,98.64c0,1.28-.46,2.29-1.39,3.03-.93.74-2.21,1.1-3.86,1.1-1.74,0-3.09-.23-4.04-.69v-1.77c.62.27,1.31.48,2.05.63s1.43.23,2.08.23c1.1,0,1.93-.21,2.48-.63.56-.42.83-1,.83-1.74,0-.49-.1-.89-.3-1.21-.2-.31-.54-.61-1.01-.88-.47-.28-1.19-.59-2.15-.93-1.36-.5-2.33-1.08-2.92-1.75s-.87-1.54-.87-2.61c0-1.15.43-2.06,1.29-2.73.86-.68,1.99-1.02,3.4-1.02s2.82.28,4.05.82l-.57,1.59c-1.26-.52-2.43-.78-3.52-.78-.87,0-1.55.19-2.05.56-.49.38-.74.9-.74,1.58,0,.48.1.88.29,1.2.19.32.5.61.92.87.43.26,1.09.56,2.01.9,1.09.4,1.91.79,2.44,1.17s.93.81,1.19,1.31c.25.49.38,1.08.38,1.76Z"/>
    <path class="cls-2" d="M249.67,102.57h-1.85v-6.85h-7.54v6.85h-1.85v-14.7h1.85v6.21h7.54v-6.21h1.85v14.7Z"/>
    <path class="cls-2" d="M271.07,102.57h-1.85v-14.7h8.21v1.63h-6.36v5.21h5.97v1.62h-5.97v6.24Z"/>
    <path class="cls-2" d="M296.41,102.57l-1.77-4.55h-5.83l-1.75,4.55h-1.87l5.74-14.76h1.67l5.73,14.76h-1.92ZM294.09,96.38l-1.65-4.45-.7-2.2c-.2.8-.41,1.54-.63,2.2l-1.67,4.45h4.65Z"/>
    <path class="cls-2" d="M308.78,96.5v6.07h-1.85v-14.7h4.05c1.82,0,3.17.35,4.05,1.04s1.31,1.74,1.31,3.13c0,1.95-.98,3.26-2.94,3.94l4.03,6.58h-2.16l-3.56-6.07h-2.92ZM308.78,94.93h2.2c1.19,0,2.06-.23,2.61-.7.55-.47.82-1.17.82-2.09s-.28-1.6-.83-2.02-1.46-.64-2.7-.64h-2.1v5.46Z"/>
    <path class="cls-2" d="M331.61,102.57l-4.84-12.89h-.08c.1,1.07.15,2.4.15,3.97v8.92h-1.71v-14.7h2.73l4.53,12.04h.08l4.61-12.04h2.71v14.7h-1.83v-9.04c0-1.01.05-2.28.14-3.83h-.08l-4.9,12.87h-1.52Z"/>
    <path class="cls-2" d="M365.9,102.57l-4.84-12.89h-.08c.1,1.07.15,2.4.15,3.97v8.92h-1.71v-14.7h2.73l4.53,12.04h.08l4.61-12.04h2.71v14.7h-1.83v-9.04c0-1.01.05-2.28.14-3.83h-.08l-4.9,12.87h-1.52Z"/>
    <path class="cls-2" d="M389.09,102.57h-8.21v-14.7h8.21v1.63h-6.36v4.58h5.99v1.61h-5.99v5.25h6.36v1.63Z"/>
    <path class="cls-2" d="M408.05,102.57l-1.77-4.55h-5.83l-1.75,4.55h-1.87l5.74-14.76h1.67l5.73,14.76h-1.92ZM405.72,96.38l-1.65-4.45-.7-2.2c-.2.8-.41,1.54-.63,2.2l-1.67,4.45h4.65Z"/>
    <path class="cls-2" d="M423.22,102.57h-1.86v-13.07h-4.59v-1.63h11.02v1.63h-4.56v13.07Z"/>
    <path class="cls-2" d="M444.04,98.64c0,1.28-.46,2.29-1.39,3.03s-2.21,1.1-3.86,1.1c-1.74,0-3.09-.23-4.04-.69v-1.77c.62.27,1.31.48,2.05.63.74.15,1.43.23,2.07.23,1.1,0,1.93-.21,2.48-.63.56-.42.83-1,.83-1.74,0-.49-.1-.89-.3-1.21-.2-.31-.54-.61-1.01-.88s-1.19-.59-2.15-.93c-1.36-.5-2.33-1.08-2.91-1.75-.58-.67-.87-1.54-.87-2.61,0-1.15.43-2.06,1.29-2.73.86-.68,1.99-1.02,3.4-1.02s2.82.28,4.05.82l-.57,1.59c-1.26-.52-2.43-.78-3.52-.78-.87,0-1.55.19-2.05.56-.49.38-.74.9-.74,1.58,0,.48.1.88.29,1.2.19.32.5.61.92.87.42.26,1.09.56,2,.9,1.09.4,1.91.79,2.44,1.17.54.38.93.81,1.19,1.31.25.49.38,1.08.38,1.76Z"/>
  </g>
</svg>